<?xml version="1.0" encoding="UTF-8"?>
<svg width="100%" height="100%" xmlns="http://www.w3.org/2000/svg">
  <g stroke="#00c8ff" stroke-width="0.5" fill="none" opacity="0.3">
    <!-- Circuit pattern 1 -->
    <path d="M10,10 L40,10 L40,40 L70,40 L70,10 L100,10" />
    
    <!-- Circuit pattern 2 -->
    <path d="M10,30 L30,30 L30,60 L60,60 L60,90" />
    
    <!-- Circuit pattern 3 -->
    <path d="M50,10 L50,30 L90,30 L90,70 L70,70 L70,90" />
    
    <!-- Circuit pattern 4 -->
    <path d="M10,50 L20,50 L20,80 L50,80 L50,90" />
    
    <!-- Circuit pattern 5 -->
    <path d="M80,50 L90,50 L90,90" />
    
    <!-- Circuit dots -->
    <circle cx="10" cy="10" r="2" fill="#00c8ff" />
    <circle cx="40" cy="40" r="2" fill="#00c8ff" />
    <circle cx="70" cy="10" r="2" fill="#00c8ff" />
    <circle cx="30" cy="60" r="2" fill="#00c8ff" />
    <circle cx="90" cy="30" r="2" fill="#00c8ff" />
    <circle cx="70" cy="70" r="2" fill="#00c8ff" />
    <circle cx="20" cy="80" r="2" fill="#00c8ff" />
    <circle cx="90" cy="50" r="2" fill="#00c8ff" />
  </g>
</svg>
